<svg xmlns="http://www.w3.org/2000/svg" width="157.328" height="124.889" viewBox="0 0 157.328 124.889">
  <g id="buddy-icon" transform="translate(64.443)">
    <path id="Path_1051" data-name="Path 1051" d="M463.8,163.559v-1.083a19.2,19.2,0,1,0-12.956,0v1.647a32.137,32.137,0,0,0-25.6,31.423v9.6a6.478,6.478,0,1,0,12.956,0v-9.6a19.01,19.01,0,0,1,3.122-10.442v.14a6.385,6.385,0,0,0-.077.78v57.6a6.479,6.479,0,1,0,12.958,0v-35.2h6.245v35.2a6.478,6.478,0,1,0,12.956,0q-.038-33.6-.077-67.206l33.695-.176a6.518,6.518,0,0,0-.267-12.68Z" transform="translate(-489.682 -125.218)" fill="#b7575a"/>
    <path id="Path_1052" data-name="Path 1052" d="M459.1,143.87a3.2,3.2,0,0,1-3.2-3.2h0a3.2,3.2,0,0,1,3.2-3.2h22.4a3.2,3.2,0,0,1,3.2,3.2h0a3.2,3.2,0,0,1-3.2,3.2Z" transform="translate(-456.261 -111.866)" fill="#b7575a"/>
    <path id="Path_1053" data-name="Path 1053" d="M481.5,152.781a3.2,3.2,0,0,1,3.2,3.2h0a3.2,3.2,0,0,1-3.2,3.2H459.1a3.2,3.2,0,0,1-3.2-3.2h0a3.2,3.2,0,0,1,3.2-3.2Z" transform="translate(-456.261 -95.175)" fill="#b7575a"/>
    <rect id="Rectangle_14" data-name="Rectangle 14" width="9.601" height="19.202" transform="translate(9.242 35.203)" fill="#b7575a"/>
    <path id="Path_1054" data-name="Path 1054" d="M470.1,158.975v-1.6h-9.6v1.6a4.8,4.8,0,0,0,9.6,0Z" transform="translate(-451.253 -90.168)" fill="#b7575a"/>
    <path id="Path_1055" data-name="Path 1055" d="M470.1,137.675a4.8,4.8,0,1,0-9.6,0v1.6h9.6Z" transform="translate(-451.253 -116.873)" fill="#b7575a"/>
    <path id="Path_1051-2" data-name="Path 1051" d="M473.334,163.559v-1.083a19.2,19.2,0,1,1,12.956,0v1.647a32.137,32.137,0,0,1,25.6,31.423v9.6a6.478,6.478,0,1,1-12.956,0v-9.6a19.01,19.01,0,0,0-3.122-10.442v.14a6.385,6.385,0,0,1,.077.78v57.6a6.479,6.479,0,1,1-12.958,0v-35.2h-6.245v35.2a6.478,6.478,0,1,1-12.956,0q.038-33.6.077-67.206l-33.695-.176a6.518,6.518,0,0,1,.267-12.68Z" transform="translate(-419.007 -125.218)" fill="#b7575a"/>
    <path id="Path_1052-2" data-name="Path 1052" d="M481.5,143.87a3.2,3.2,0,0,0,3.2-3.2h0a3.2,3.2,0,0,0-3.2-3.2H459.1a3.2,3.2,0,0,0-3.2,3.2h0a3.2,3.2,0,0,0,3.2,3.2Z" transform="translate(-455.901 -111.866)" fill="#b7575a"/>
    <path id="Path_1053-2" data-name="Path 1053" d="M459.1,152.781a3.2,3.2,0,0,0-3.2,3.2h0a3.2,3.2,0,0,0,3.2,3.2h22.4a3.2,3.2,0,0,0,3.2-3.2h0a3.2,3.2,0,0,0-3.2-3.2Z" transform="translate(-455.901 -95.175)" fill="#b7575a"/>
    <rect id="Rectangle_14-2" data-name="Rectangle 14" width="9.601" height="19.202" transform="translate(9.6 35.203)" fill="#b7575a"/>
    <path id="Path_1054-2" data-name="Path 1054" d="M460.495,158.975v-1.6h9.6v1.6a4.8,4.8,0,0,1-9.6,0Z" transform="translate(-450.896 -90.168)" fill="#b7575a"/>
    <path id="Path_1055-2" data-name="Path 1055" d="M460.495,137.675a4.8,4.8,0,1,1,9.6,0v1.6h-9.6Z" transform="translate(-450.896 -116.873)" fill="#b7575a"/>
  </g>
</svg>
