<svg xmlns="http://www.w3.org/2000/svg" width="78.417" height="124.889" viewBox="0 0 78.417 124.889">
  <g id="Virtual_Icon" data-name="Virtual Icon" transform="translate(637.374 -1423.272)">
    <g id="Group_21" data-name="Group 21" transform="translate(-630.382 1451.613)">
      <path id="Path_1044" data-name="Path 1044" d="M351.42,141.833v-.754a8.786,8.786,0,1,0-5.93,0v.754a14.705,14.705,0,0,0-11.715,14.379v4.393a2.965,2.965,0,0,0,5.93,0v-4.393a8.7,8.7,0,0,1,1.428-4.778v.064a2.933,2.933,0,0,0-.035.357v26.359a2.965,2.965,0,1,0,5.929,0V162.106h2.857v16.108a2.965,2.965,0,1,0,5.929,0V151.855a2.927,2.927,0,0,0-.035-.357v-.064a8.7,8.7,0,0,1,1.428,4.778v4.393a2.965,2.965,0,0,0,5.93,0v-4.393A14.706,14.706,0,0,0,351.42,141.833Z" transform="translate(-316.239 -124.031)" fill="#b7575a"/>
      <path id="Path_1045" data-name="Path 1045" d="M322.96,167.769a1.464,1.464,0,0,1-1.464,1.464h0a1.464,1.464,0,0,1-1.464-1.464v-13.18a1.464,1.464,0,0,1,1.464-1.464h0a1.464,1.464,0,0,1,1.464,1.464Z" transform="translate(-315.639 -125.301)" fill="#b7575a"/>
      <path id="Path_1046" data-name="Path 1046" d="M327.554,167.769a1.465,1.465,0,0,1-1.464,1.464h0a1.465,1.465,0,0,1-1.465-1.464v-13.18a1.464,1.464,0,0,1,1.465-1.464h0a1.464,1.464,0,0,1,1.464,1.464Z" transform="translate(-315.839 -125.301)" fill="#b7575a"/>
      <path id="Path_1047" data-name="Path 1047" d="M375.157,154.589a1.464,1.464,0,0,1,1.464-1.464h0a1.464,1.464,0,0,1,1.464,1.464v13.18a1.464,1.464,0,0,1-1.464,1.464h0a1.464,1.464,0,0,1-1.464-1.464Z" transform="translate(-318.046 -125.301)" fill="#b7575a"/>
      <path id="Path_1048" data-name="Path 1048" d="M370.563,154.589a1.464,1.464,0,0,1,1.464-1.464h0a1.464,1.464,0,0,1,1.464,1.464v13.18a1.464,1.464,0,0,1-1.464,1.464h0a1.464,1.464,0,0,1-1.464-1.464Z" transform="translate(-317.845 -125.301)" fill="#b7575a"/>
      <rect id="Rectangle_13" data-name="Rectangle 13" width="38.074" height="4.393" transform="translate(13.179 33.681)" fill="#b7575a"/>
      <g id="Group_20" data-name="Group 20" transform="translate(0 33.681)">
        <path id="Path_1049" data-name="Path 1049" d="M380.483,159.25h-.733v4.393h.733a2.2,2.2,0,1,0,0-4.393Z" transform="translate(-318.246 -159.25)" fill="#b7575a"/>
        <path id="Path_1050" data-name="Path 1050" d="M317.635,159.25a2.2,2.2,0,0,0,0,4.393h.732V159.25Z" transform="translate(-315.438 -159.25)" fill="#b7575a"/>
      </g>
    </g>
    <path id="Icon_ionic-ios-phone-portrait" data-name="Icon ionic-ios-phone-portrait" d="M71.565,2.25H11.352a9.173,9.173,0,0,0-9.227,9.172V117.633a9.444,9.444,0,0,0,9.227,9.506H71.538a9.258,9.258,0,0,0,9-9.506V11.422A8.945,8.945,0,0,0,71.565,2.25Zm-34.4,6.412h8.363a1.115,1.115,0,1,1,0,2.23H37.166a1.115,1.115,0,1,1,0-2.23Zm4.321,114.3a4.851,4.851,0,1,1,4.851-4.851A4.854,4.854,0,0,1,41.487,122.958ZM75.552,109.3H7.143a.559.559,0,0,1-.558-.558V17.025a.559.559,0,0,1,.558-.558H75.552a.559.559,0,0,1,.558.558v91.716A.559.559,0,0,1,75.552,109.3Z" transform="translate(-639.499 1421.022)" fill="#b7575a"/>
  </g>
</svg>
