<svg xmlns="http://www.w3.org/2000/svg" width="102.068" height="124.889" viewBox="0 0 102.068 124.889">
  <g id="Tophie_Icon" data-name="Tophie Icon" transform="translate(-227.267 -222.031)">
    <path id="Path_1056" data-name="Path 1056" d="M293.551,273.073H239.623a2.073,2.073,0,0,0-2.075,2.072v11.573a2.074,2.074,0,0,0,2.075,2.075h53.928a2.074,2.074,0,0,0,2.075-2.075V275.145A2.073,2.073,0,0,0,293.551,273.073Z" transform="translate(11.708 58.127)" fill="#b7575a"/>
    <path id="Path_1057" data-name="Path 1057" d="M322.6,241.789a22.9,22.9,0,0,0-15.263-6.677V226.18a4.149,4.149,0,0,0-4.147-4.149H268.469v26.2a4.913,4.913,0,0,1-9.826,0v-26.2H253.4a4.147,4.147,0,0,0-4.147,4.149V235.1a22.976,22.976,0,0,0-15.263,39.221,6.629,6.629,0,1,0,9.377-9.374,9.759,9.759,0,0,1,0-13.782,9.65,9.65,0,0,1,5.886-2.755v22.746h.032c0,.218-.032.434-.032.654A29.04,29.04,0,0,0,270,299.633v10.825h-4.149a8.3,8.3,0,0,0-8.3,8.3V322.9a4.147,4.147,0,0,0,4.149,4.147h33.186a4.147,4.147,0,0,0,4.149-4.147v-4.149a8.3,8.3,0,0,0-8.3-8.3h-4.149V299.633a29.04,29.04,0,0,0,20.742-27.822c0-.22-.028-.436-.034-.654h.034V248.415a9.705,9.705,0,0,1,5.888,16.531,6.63,6.63,0,1,0,9.374,9.379,23,23,0,0,0,0-32.536Z" transform="translate(0 0)" fill="#b7575a"/>
  </g>
</svg>
