<svg xmlns="http://www.w3.org/2000/svg" width="180.962" height="91.682" viewBox="0 0 180.962 91.682">
  <defs>
    <style>
      .cls-1 {
        fill: #b7575a;
      }

      .cls-2, .cls-3 {
        fill: none;
        stroke-miterlimit: 10;
      }

      .cls-2 {
        stroke: #262a37;
        stroke-linecap: round;
      }

      .cls-3 {
        stroke: #fff;
        stroke-width: 2px;
      }

      .cls-4 {
        fill: #fff;
      }
    </style>
  </defs>
  <g id="Layer_2" data-name="Layer 2" transform="translate(0 -32.703)">
    <g id="Layer_1" data-name="Layer 1" transform="translate(0 33.703)">
      <g id="Group_14" data-name="Group 14" transform="translate(0 0)">
        <g id="Group_9" data-name="Group 9" transform="translate(35.071 21.268)">
          <g id="Group_6" data-name="Group 6">
            <path id="Path_1019" data-name="Path 1019" class="cls-1" d="M186.978,230.834a24.139,24.139,0,0,0-6.263,5.93c-.33,4.266,2.416,10.263,3.382,18.952-2.174,6.886-8.59,12.977-9.422,14.8-1.968-4.923-7.629-13.691-10.281-12.185a30.19,30.19,0,0,0-5.906-17.4c-6.155-7.957-15.57-16.066-22.391-12.292-6.757,3.739-5.4,17.119-5.235,18.523.676,5.745,3.637,14.163,8.679,15.242.628.137,1.208.268,1.208.268a4.049,4.049,0,0,0,.832-.027c1.654-.215,22.141,32.461,34.954,31.379a7.5,7.5,0,0,0,2.239-.561c6.963-11.975,18.942-38.323,21.76-43.7,1-3,1.952-10.292,3.06-17.449a3.1,3.1,0,0,0-.1-1.3,1.954,1.954,0,0,0-.537-.736c-4.233-2.005-4.343-2.88-5.737-3.67a19.687,19.687,0,0,0-8.453.333,2.33,2.33,0,0,0-1.584,1.82A14.846,14.846,0,0,0,186.978,230.834Z" transform="translate(-130.643 -224.638)"/>
            <path id="Path_1020" data-name="Path 1020" class="cls-1" d="M350.49,270.093s14.418,16.375,16.644,17.607a2.029,2.029,0,0,0,2.164-.134c2.8-2.013,8.322-9.237,17.245-21.782,2.609-.494,10.808-11.21,13.328-17.371,4.062-9.932,2.821-23.623-3.678-27.73-3.127-1.342-6.577-.15-9.374,1.039a8.977,8.977,0,0,0-2.553,1.611c-3.941,3.613-8.577,12.536-9.154,23.145a16.837,16.837,0,0,0-8.915,10.9q-1.385-1.358-2.8-2.829-1.892-1.981-3.578-3.906" transform="translate(-291.473 -220.09)"/>
          </g>
          <g id="Group_8" data-name="Group 8" transform="translate(52.499 4.762)">
            <path id="Path_1021" data-name="Path 1021" class="cls-2" d="M413.267,363.335A23.834,23.834,0,0,0,408,356.244" transform="translate(-385.938 -324.664)"/>
            <g id="Group_7" data-name="Group 7" transform="translate(0 0)">
              <path id="Path_1022" data-name="Path 1022" class="cls-2" d="M328.685,266.866c1.773-6.062,4.329-8.78,6.567-9.552,1.7-.588,4.037-1.3,4.62-1.979.774-.9.121-2.81-.541-4.018a7.746,7.746,0,0,0,.378-2.19c-.05-1.27-.7-1.922-.627-2.193a3.858,3.858,0,0,0,.068-3.547,3.56,3.56,0,0,0-.434-3.6c-.464-.475-1.087-.659-3.434-.356a19.8,19.8,0,0,0-3.226.843" transform="translate(-328.685 -239.281)"/>
              <path id="Path_1023" data-name="Path 1023" class="cls-2" d="M338.15,254.274c2.416-1.643,3.686-2.255,7.023-1.847" transform="translate(-334.945 -248.419)"/>
              <path id="Path_1024" data-name="Path 1024" class="cls-2" d="M339.55,268.534c1.611-1.919,4-2.548,6.585-2.684" transform="translate(-335.969 -258.328)"/>
              <path id="Path_1025" data-name="Path 1025" class="cls-2" d="M338.84,284.931a9.189,9.189,0,0,1,4.274-2.615,8.732,8.732,0,0,1,2.725-.3" transform="translate(-335.45 -270.15)"/>
            </g>
          </g>
        </g>
        <g id="Group_13" data-name="Group 13">
          <path id="Path_1026" data-name="Path 1026" class="cls-3" d="M543.14,188.509A34.937,34.937,0,0,1,543,182.7a.969.969,0,0,1,.805-.9,23.438,23.438,0,0,1,4.376-.2,1.044,1.044,0,0,1,.867.615c1.8,4,4.086,12.451,4.1,28.635-.558,15.159-2.591,24.727-3.568,26.751a.628.628,0,0,1-.583.357,19.973,19.973,0,0,1-5.782-1.342.51.51,0,0,1-.33-.443c-.2-3.165.056-5.871.566-11.441" transform="translate(-397.105 -170.646)"/>
          <path id="Path_1027" data-name="Path 1027" class="cls-3" d="M571.491,150.834a50.572,50.572,0,0,1-.182-8.343,1.388,1.388,0,0,1,1.16-1.294,32.807,32.807,0,0,1,6.193-.3,1.482,1.482,0,0,1,1.227.881c2.55,5.745,5.769,17.887,5.774,41.139-.805,21.779-3.7,35.529-5.084,38.439a.891.891,0,0,1-.824.513,27.369,27.369,0,0,1-8.182-1.936.771.771,0,0,1-.47-.636,30.815,30.815,0,0,1,.478-9.7" transform="translate(-417.647 -140.865)"/>
          <path id="Path_1028" data-name="Path 1028" class="cls-3" d="M102.706,189.689a34.594,34.594,0,0,0,.134-5.806.966.966,0,0,0-.805-.9,23.392,23.392,0,0,0-4.373-.2,1.05,1.05,0,0,0-.867.615c-1.8,4-4.086,12.451-4.1,28.635.558,15.159,2.591,24.727,3.568,26.751a.628.628,0,0,0,.583.357,19.869,19.869,0,0,0,5.78-1.342.5.5,0,0,0,.333-.443c.2-3.165-.059-5.871-.566-11.441" transform="translate(-67.808 -171.509)"/>
          <path id="Path_1029" data-name="Path 1029" class="cls-3" d="M62.291,152a50.565,50.565,0,0,0,.183-8.343,1.383,1.383,0,0,0-1.16-1.291,32.588,32.588,0,0,0-6.193-.3,1.482,1.482,0,0,0-1.227.881c-2.55,5.747-5.769,17.887-5.774,41.139.805,21.779,3.7,35.532,5.084,38.439a.889.889,0,0,0,.824.513,27.388,27.388,0,0,0,8.182-1.935.77.77,0,0,0,.47-.636,30.742,30.742,0,0,0-.481-9.7" transform="translate(-35.202 -141.715)"/>
          <g id="Group_12" data-name="Group 12" transform="translate(0 34.999)">
            <g id="Group_10" data-name="Group 10" transform="translate(170.493)">
              <rect id="Rectangle_9" data-name="Rectangle 9" class="cls-4" width="9.127" height="5.369" rx="2.5" transform="translate(0.671 0.671)"/>
              <path id="Path_1030" data-name="Path 1030" class="cls-4" d="M644.237,272.582v4.027h-7.785v-4.027h7.785m0-1.342h-7.785a1.342,1.342,0,0,0-1.342,1.342v4.027a1.342,1.342,0,0,0,1.342,1.342h7.785a1.342,1.342,0,0,0,1.342-1.342v-4.027a1.342,1.342,0,0,0-1.342-1.342Z" transform="translate(-635.11 -271.24)"/>
            </g>
            <g id="Group_11" data-name="Group 11" transform="translate(0 0.537)">
              <rect id="Rectangle_10" data-name="Rectangle 10" class="cls-4" width="9.127" height="5.369" rx="2.5" transform="translate(0.671 0.671)"/>
              <path id="Path_1031" data-name="Path 1031" class="cls-4" d="M9.127,274.582v4.027H1.342v-4.027H9.127m0-1.342H1.342A1.342,1.342,0,0,0,0,274.582v4.027a1.342,1.342,0,0,0,1.342,1.342H9.127a1.342,1.342,0,0,0,1.342-1.342v-4.027A1.342,1.342,0,0,0,9.127,273.24Z" transform="translate(0 -273.24)"/>
            </g>
          </g>
        </g>
      </g>
    </g>
  </g>
</svg>
