<svg xmlns="http://www.w3.org/2000/svg" width="183" height="149.849" viewBox="0 0 183 149.849">
  <defs>
    <style>
      .cls-1, .cls-3, .cls-4, .cls-8 {
        fill: none;
      }

      .cls-1 {
        stroke: #201d1d;
      }

      .cls-1, .cls-3, .cls-4 {
        stroke-miterlimit: 10;
      }

      .cls-2 {
        fill: #b7575a;
      }

      .cls-3 {
        stroke: #303850;
        stroke-linecap: round;
      }

      .cls-4 {
        stroke: #efeff0;
      }

      .cls-5, .cls-6 {
        fill: #fff;
      }

      .cls-5 {
        stroke: #fff;
        stroke-linejoin: round;
      }

      .cls-6 {
        font-size: 42px;
        font-family: Spantaran;
      }

      .cls-7 {
        stroke: none;
      }
    </style>
  </defs>
  <g id="Group_18" data-name="Group 18" transform="translate(-334.825 -256.216)">
    <path id="Path_1032" data-name="Path 1032" class="cls-1" d="M452.93,382.527" transform="translate(-3.179 -3.429)"/>
    <path id="Path_1033" data-name="Path 1033" class="cls-2" d="M427.431,344.936a24.146,24.146,0,0,0-6.282,5.949c-.333,4.28,2.414,10.295,3.39,19.011-2.179,6.909-8.629,13.019-9.45,14.844-1.976-4.937-7.653-13.742-10.313-12.224a30.308,30.308,0,0,0-5.924-17.449c-6.174-7.981-15.622-16.117-22.462-12.331-6.778,3.752-5.415,17.173-5.249,18.577.679,5.761,3.648,14.207,8.705,15.29.631.135,1.212.271,1.212.271a4.014,4.014,0,0,0,.835-.028c1.66-.213,22.212,32.563,35.065,31.478a7.513,7.513,0,0,0,2.246-.561c6.981-12.013,19-38.441,21.833-43.833,1-3.013,1.958-10.325,3.071-17.494a3.166,3.166,0,0,0-.105-1.308,1.982,1.982,0,0,0-.533-.737c-4.247-2.012-4.356-2.888-5.755-3.681a19.729,19.729,0,0,0-8.479.335,2.339,2.339,0,0,0-1.589,1.826A14.781,14.781,0,0,0,427.431,344.936Z" transform="translate(-0.953 -2.286)"/>
    <path id="Path_1034" data-name="Path 1034" class="cls-2" d="M431.773,388.836s14.464,16.425,16.686,17.661a2.032,2.032,0,0,0,2.17-.133c2.806-2.022,8.355-9.266,17.3-21.851,2.618-.5,10.842-11.244,13.37-17.425,4.075-9.962,2.832-23.689-3.688-27.819-3.138-1.35-6.6-.151-9.4,1.042a8.971,8.971,0,0,0-2.561,1.624c-3.954,3.624-8.6,12.576-9.182,23.218a16.892,16.892,0,0,0-8.931,10.927q-1.389-1.361-2.8-2.84-1.9-1.986-3.591-3.918" transform="translate(-2.605 -2.239)"/>
    <g id="Group_17" data-name="Group 17" transform="translate(422.633 341.118)">
      <path id="Path_1035" data-name="Path 1035" class="cls-3" d="M453.359,382.334c-1.721-2.246-3.612-5.077-5.692-6.927" transform="translate(-425.67 -344.354)"/>
      <g id="Group_16" data-name="Group 16" transform="translate(0 0)">
        <path id="Path_1036" data-name="Path 1036" class="cls-3" d="M425.056,369.9c2.4-5.9,4.342-8.2,6.486-8.962,1.614-.574,3.377-.718,4.405-1.966.737-.9.114-2.8-.517-4a7.818,7.818,0,0,0,.362-2.18c-.05-1.262-.67-1.912-.6-2.179a3.99,3.99,0,0,0,.064-3.529c.719-1.257.6-2.681-.386-3.292-.195-.047-.4-.126-.713-.19a7.059,7.059,0,0,0-2.622.023,33.211,33.211,0,0,0-3.269.654" transform="translate(-425.056 -343.487)"/>
        <path id="Path_1037" data-name="Path 1037" class="cls-3" d="M428.356,348.7c2.411-1.648,3.7-2.263,7.045-1.854" transform="translate(-425.146 -343.575)"/>
        <path id="Path_1038" data-name="Path 1038" class="cls-3" d="M428.744,353.166c1.6-1.923,4.016-2.556,6.606-2.689" transform="translate(-425.156 -343.677)"/>
        <path id="Path_1039" data-name="Path 1039" class="cls-3" d="M428.548,357.877a9.227,9.227,0,0,1,4.286-2.624,8.829,8.829,0,0,1,2.735-.3" transform="translate(-425.151 -343.798)"/>
      </g>
    </g>
    <path id="Path_1040" data-name="Path 1040" class="cls-4" d="M485.335,334.969a34.77,34.77,0,0,1-.135-5.825.971.971,0,0,1,.821-.9,23.442,23.442,0,0,1,4.388-.2,1.048,1.048,0,0,1,.869.616c1.81,4.013,4.1,12.491,4.117,28.726-.56,15.206-2.6,24.8-3.578,26.835a.631.631,0,0,1-.585.358,19.66,19.66,0,0,1-5.8-1.358.507.507,0,0,1-.333-.444c-.2-3.175.058-5.889.569-11.478" transform="translate(-4.051 -1.949)"/>
    <path id="Path_1041" data-name="Path 1041" class="cls-4" d="M493.375,326.74a50.694,50.694,0,0,1-.185-8.369,1.39,1.39,0,0,1,1.164-1.3,32.689,32.689,0,0,1,6.214-.3,1.485,1.485,0,0,1,1.231.883c2.558,5.763,5.787,17.942,5.793,41.268-.812,21.848-3.708,35.642-5.1,38.561a.892.892,0,0,1-.828.515,27.5,27.5,0,0,1-8.208-1.943.774.774,0,0,1-.471-.638,30.82,30.82,0,0,1,.481-9.732" transform="translate(-4.262 -1.643)"/>
    <path id="Path_1042" data-name="Path 1042" class="cls-4" d="M370.453,335.3a34.773,34.773,0,0,0,.135-5.825.971.971,0,0,0-.821-.9,23.442,23.442,0,0,0-4.388-.2,1.048,1.048,0,0,0-.869.616c-1.81,4.013-4.1,12.491-4.117,28.726.56,15.207,2.6,24.8,3.578,26.835a.63.63,0,0,0,.585.358,19.69,19.69,0,0,0,5.8-1.357.508.508,0,0,0,.333-.445c.2-3.175-.058-5.889-.569-11.478" transform="translate(-0.667 -1.958)"/>
    <path id="Path_1043" data-name="Path 1043" class="cls-4" d="M362.289,327.067a50.693,50.693,0,0,0,.185-8.369,1.39,1.39,0,0,0-1.165-1.3,32.675,32.675,0,0,0-6.213-.3,1.486,1.486,0,0,0-1.231.883c-2.558,5.764-5.787,17.942-5.793,41.268.812,21.848,3.708,35.642,5.1,38.561a.892.892,0,0,0,.828.515,27.474,27.474,0,0,0,8.208-1.943.774.774,0,0,0,.471-.638,30.823,30.823,0,0,0-.481-9.732" transform="translate(-0.333 -1.652)"/>
    <g id="Rectangle_11" data-name="Rectangle 11" class="cls-5" transform="translate(507.16 351.556)">
      <rect class="cls-7" width="7.809" height="4.039"/>
      <rect class="cls-8" x="-0.5" y="-0.5" width="8.809" height="5.039"/>
    </g>
    <g id="Rectangle_12" data-name="Rectangle 12" class="cls-5" transform="translate(343.939 356.134) rotate(180)">
      <rect class="cls-7" width="7.809" height="4.039"/>
      <rect class="cls-8" x="-0.5" y="-0.5" width="8.809" height="5.039"/>
    </g>
    <text id="FITNESS_BUD" data-name="FITNESS
BUD" class="cls-6" transform="translate(425.825 291.216)"><tspan x="-88.737" y="0">FITNESS</tspan><tspan x="-42.687" y="35">BUD</tspan></text>
  </g>
</svg>
