<svg xmlns="http://www.w3.org/2000/svg" width="241.759" height="503.448" viewBox="0 0 241.759 503.448">
  <g id="workout-screen" transform="translate(449.161 -1123.843)">
    <rect id="Rectangle_2" data-name="Rectangle 2" width="241.759" height="503.447" rx="31" transform="translate(-449.161 1123.843)"/>
    <path id="Intersection_6" data-name="Intersection 6" d="M21.269,484.419A25.262,25.262,0,0,1,0,463.152V21.394A25.258,25.258,0,0,1,22.267,0h28V5.132a14.176,14.176,0,0,0,8.65,13.048,14.075,14.075,0,0,0,5.513,1.113H159.4a14.116,14.116,0,0,0,10.014-4.147,14.116,14.116,0,0,0,4.148-10.014V0h28A25.252,25.252,0,0,1,224,22.85V461.7a25.259,25.259,0,0,1-21.442,22.723Z" transform="translate(-440.006 1132.737)" fill="#384059"/>
    <rect id="Rectangle_35" data-name="Rectangle 35" width="223.996" height="188.561" transform="translate(-440.006 1151.076)" fill="#fff"/>
    <path id="Icon_ionic-ios-arrow-back" data-name="Icon ionic-ios-arrow-back" d="M13.386,12.386,18.073,7.7a.885.885,0,0,0-1.254-1.25l-5.311,5.307a.884.884,0,0,0-.026,1.221l5.333,5.344a.885.885,0,0,0,1.254-1.25Z" transform="translate(-444.832 1154.848)" fill="#384059"/>
    <path id="Path_1148" data-name="Path 1148" d="M23.6,0A23.6,23.6,0,1,1,0,23.6,23.6,23.6,0,0,1,23.6,0Z" transform="translate(-351.364 1552.852)" fill="#b7575a"/>
    <text id="_00:20" data-name="00:20" transform="translate(-329.262 1504.985)" fill="#fff" stroke="rgba(0,0,0,0)" stroke-width="1" font-size="36" font-family="Montserrat-Regular, Montserrat"><tspan x="-49.716" y="0">00:20</tspan></text>
    <g id="Icon_feather-pause" data-name="Icon feather-pause" transform="translate(-335.236 1566.487)">
      <path id="Path_1051" data-name="Path 1051" d="M9,6h4.984V25.934H9Z" transform="translate(-9 -6)" fill="none" stroke="#fff" stroke-linecap="round" stroke-linejoin="round" stroke-width="3"/>
      <path id="Path_1052" data-name="Path 1052" d="M21,6h4.984V25.934H21Z" transform="translate(-11.033 -6)" fill="none" stroke="#fff" stroke-linecap="round" stroke-linejoin="round" stroke-width="3"/>
    </g>
    <g id="Images_Base_Style_1" data-name="Images / Base / Style 1" transform="translate(-374.442 1202.478)">
      <path id="Base_image" data-name="Base image" d="M43.187,87.582c-7.128-.038-14.306-.043-21.414-.622a49.954,49.954,0,0,1-6.9-.441c-4.294-.624-9.351-2.329-11.2-6.594-1.536-3.541-1.644-7.652-1.741-11.448-.3-11.593-.876-23.183-1.321-34.771-.233-6.1-.855-12.324-.5-18.419C.41,10.069,2.316,5.1,7.488,2.937a25.154,25.154,0,0,1,8.178-1.582c3.5-.223,7-.342,10.505-.483Q37.242.426,48.322.211c7.359-.143,14.727-.26,22.088-.19,5.974.058,13.12.05,18.412,3.213,5.536,3.309,5.3,9.508,5.384,15.172q.166,10.836.2,21.674.034,11.13-.073,22.261-.052,5.419-.137,10.837c-.044,2.8,0,5.876-1.658,8.295-2.434,3.544-7.209,4.323-11.207,4.819-3.456.429-6.943.632-10.421.8-7.79.379-15.595.5-23.395.5Q45.35,87.593,43.187,87.582ZM61.322,1.8q-10.342.074-20.68.349T19.973,2.9c-5.378.248-12.55-.037-15.961,4.947-3.124,4.565-2.175,11.009-1.986,16.2q.311,8.538.649,17.075c.393,10.033.537,20.1,1.135,30.124.24,4.008.59,8.678,4.25,11.12C12,84.989,17.182,85.174,21.773,85.2c1.166.095,2.334.163,3.5.22A449.92,449.92,0,0,0,73.3,85.2c3.044-.177,6.109-.368,9.127-.825a18.4,18.4,0,0,0,6.289-1.829c2.893-1.628,3.56-4.464,3.661-7.55.443-13.575.3-27.2.217-40.778-.044-6.792.02-13.613-.263-20.4-.121-2.9-.616-5.888-2.877-7.946a14.972,14.972,0,0,0-7.294-3.141A67.385,67.385,0,0,0,69.109,1.718C66.5,1.718,63.9,1.78,61.322,1.8ZM41.36,59.507c-1.424-.013-2.845-.071-4.267-.139a4.856,4.856,0,0,1-3-.731,3.439,3.439,0,0,1-1.18-2.867c-.042-2.681-.021-5.364-.032-8.045l-.035-8.808a6.251,6.251,0,0,1,.2-2.256c.842-2.229,3.225-2.019,5.191-2.066,5.279-.126,10.561-.128,15.842-.1q3.1.015,6.19.047c1.973.021,3.478.822,3.78,2.837a.933.933,0,0,1,.033.232l.19,17.273a6.337,6.337,0,0,1-.178,2.224c-.829,2.325-3.583,2.156-5.612,2.283-1.929.12-3.873.1-5.813.074-.847-.01-1.693-.02-2.536-.018-2.523.006-5.046.068-7.57.068Q41.963,59.512,41.36,59.507Zm.285-13.388c-.876.688-1.651,1.594-2.453,2.366l-4.5,4.339c-.022.021-.045.035-.067.053a21.143,21.143,0,0,0,.048,3.356c.212,1.662,2.114,1.363,3.362,1.42,1.106.05,2.212.085,3.319.095,2.524.023,5.047-.044,7.572-.058,1.286-.007,2.572,0,3.859,0,1.264,0,2.528,0,3.793,0,.232,0,.521.007.845.015,1.873.047,4.914.094,5.1-1.675a42.016,42.016,0,0,0-.052-4.943q-1.427-1.343-2.866-2.67a12.762,12.762,0,0,0-2.743-2.381c-1.494-.676-3.982,2.041-5.3,3.577,1.111,1.2,2.156,2.432,3.152,3.55.752.844-.49,2.092-1.245,1.244-2.575-2.891-5.186-5.926-8.477-8.031a3.856,3.856,0,0,0-1.956-.816A2.234,2.234,0,0,0,41.645,46.119ZM34.6,37.762a41.428,41.428,0,0,0,.019,4.872l.031,7.785,4.723-4.558c1.469-1.417,2.676-2.756,4.856-1.9a18.637,18.637,0,0,1,6.123,4.384,27.9,27.9,0,0,1,2.877-2.732c.923-.759,1.95-1.658,3.225-1.575,1.29.084,2.261,1.182,3.152,1.993q1.426,1.3,2.833,2.615-.06-5.519-.121-11.038c-.158-1.589-2.914-1.49-4.753-1.392-.462.025-.867.05-1.157.048q-3.639-.025-7.278-.024-3.948,0-7.9.056-1.806.026-3.612.072c-.149,0-.3,0-.462,0h0C36.041,36.373,34.767,36.374,34.6,37.762Zm11.751,3.292a3.21,3.21,0,0,1,3.294-3.448,3.575,3.575,0,0,1,3.519,3.551,3.433,3.433,0,0,1-3.513,3.349h-.011A3.32,3.32,0,0,1,46.355,41.053Zm3.151-1.691c-1.028.046-1.367.774-1.39,1.691A1.547,1.547,0,0,0,49.8,42.736a1.634,1.634,0,0,0,1.6-1.579,1.8,1.8,0,0,0-1.819-1.8Z" transform="translate(0 0)" fill="#384059" stroke="rgba(0,0,0,0)" stroke-width="1"/>
    </g>
    <g id="Icon_ionic-ios-information-circle-outline" data-name="Icon ionic-ios-information-circle-outline" transform="translate(-234.488 1321.516)">
      <path id="Path_1053" data-name="Path 1053" d="M16.552,11.263a.574.574,0,1,1,.571.557A.558.558,0,0,1,16.552,11.263Zm.039.995h1.064v4.015H16.591Z" transform="translate(-11.33 -7.802)" fill="#384059"/>
      <path id="Path_1054" data-name="Path 1054" d="M9.171,4.155A5.014,5.014,0,1,1,5.624,5.624,4.982,4.982,0,0,1,9.171,4.155m0-.78a5.8,5.8,0,1,0,5.8,5.8,5.795,5.795,0,0,0-5.8-5.8Z" transform="translate(-3.375 -3.375)" fill="#384059"/>
    </g>
    <text id="Jumping_Jacks" data-name="Jumping Jacks" transform="translate(-332.369 1409.258)" fill="#fff" stroke="rgba(0,0,0,0)" stroke-width="1" font-size="20" font-family="Montserrat-Medium, Montserrat" font-weight="500"><tspan x="-76.29" y="0">Jumping Jacks</tspan></text>
    <path id="Icon_ionic-ios-arrow-back-2" data-name="Icon ionic-ios-arrow-back" d="M13.306,12.224l4.513-4.561a.865.865,0,0,0,0-1.217.849.849,0,0,0-1.207,0L11.5,11.613a.868.868,0,0,0-.025,1.189l5.134,5.2a.85.85,0,0,0,1.207,0,.865.865,0,0,0,0-1.217Z" transform="translate(-393.036 1564.491)" fill="#b7575a"/>
    <path id="Icon_ionic-ios-arrow-back-3" data-name="Icon ionic-ios-arrow-back" d="M16.014,12.224,11.5,7.663a.865.865,0,0,1,0-1.217.849.849,0,0,1,1.207,0l5.113,5.168a.868.868,0,0,1,.025,1.189l-5.134,5.2a.85.85,0,0,1-1.207,0,.865.865,0,0,1,0-1.217Z" transform="translate(-291.806 1564.491)" fill="#b7575a"/>
    <text id="John_Doe" data-name="John Doe" transform="translate(-347.624 1371.417)" fill="#fff" stroke="rgba(0,0,0,0)" stroke-width="1" font-size="9" font-family="Montserrat-Regular, Montserrat"><tspan x="0" y="0">John Doe</tspan></text>
    <ellipse id="Ellipse_6" data-name="Ellipse 6" cx="3.164" cy="3.164" rx="3.164" ry="3.164" transform="translate(-357.748 1366.213)" fill="#00fd4e"/>
  </g>
</svg>
